<?xml version="1.0" encoding="utf-8"?>
<!-- Generator: Adobe Illustrator 25.0.1, SVG Export Plug-In . SVG Version: 6.00 Build 0)  -->
<svg version="1.1" id="Layer_1" xmlns="http://www.w3.org/2000/svg" xmlns:xlink="http://www.w3.org/1999/xlink" x="0px" y="0px"
	 viewBox="0 0 200 200" style="enable-background:new 0 0 200 200;" xml:space="preserve">
<g id="textk">
	<path d="M128,138.8c-0.9-1-1.7-2.2-2.5-3.5l-18.5-31l7.1-7.3c2.4-2.3,4.7-4.2,7-5.6c2.3-1.5,4.6-2.4,6.8-2.9v-2.2
		c-0.9,0.1-2.1,0.1-3.5,0.2s-3,0.1-4.7,0.1c-1.7,0-3.2,0.1-4.7,0.1c-1.7,0-3.8,0-6.2-0.1s-4.7-0.2-6.7-0.2v2.2
		c2.6,0.1,4.7,0.7,6.2,1.8c1.6,1.1,2.4,2.6,2.4,4.4s-1.2,3.9-3.8,6.3l-8.4,8.2c-1,1-2,1.7-3.2,2.1c-1,0.3-2.2,0.6-3.5,0.7V56.7
		c-2.3,0.5-4.8,0.9-7.5,1.2c-2.7,0.3-5.6,0.4-8.6,0.4c-2.2,0-4.5-0.1-6.8-0.3v2.3c2.7,0,4.6,0.8,5.6,2.4c1,1.6,1.5,4,1.5,7.3v63
		c0,3.1-0.5,5.2-1.6,6.3c-1.1,1.1-2.9,1.7-5.5,1.7v2.3c1.5-0.1,3.7-0.2,6.6-0.3s5.8-0.2,8.7-0.2c2.8,0,5.6,0.1,8.2,0.2
		c2.7,0.1,4.7,0.2,6.1,0.3V141c-2.4,0-4.2-0.6-5.1-1.7s-1.5-3.2-1.5-6.3v-19c1.1,0.1,2.1,0.3,2.8,0.7c0.8,0.4,1.7,1.3,2.6,2.7
		l10.9,19.8c0.7,1.1,0.7,2,0.2,2.7c-0.5,0.7-1.5,1.1-3,1.1v2.3c1.3-0.1,3.3-0.2,6.1-0.3s5.4-0.2,8.2-0.2c2.2,0,4.4,0.1,6.6,0.2
		s3.9,0.2,5,0.3V141C130,140.5,128.9,139.8,128,138.8z"/>
</g>
<g id="circle">
	<g>
		<path d="M66.7,24.7l-0.6,1.5l1.1,2.4l-2.7,1.2l-4.2-9.6l2.7-1.2l1.7,4l2-5.6l3-1.3l-2.1,6l6.5,3.6L71,27L66.7,24.7z"/>
		<path d="M83.3,12.4l2.5,10.2L83,23.3l-1-4l-3.9,1l1,4L76.2,25l-2.5-10.2l2.9-0.7l0.9,3.8l3.9-1l-0.9-3.8L83.3,12.4z"/>
		<path d="M96.1,19.5l-4.4,0.3L91,21.9l-3,0.2l3.8-10.8l2.9-0.2l5.4,10.1l-3.1,0.2L96.1,19.5z M95.1,17.4l-1.6-3.2l-1.1,3.5
			L95.1,17.4z"/>
		<path d="M104.7,13.5l-3.2-0.2l0.2-2.3l9.4,0.7l-0.2,2.4l-3.2-0.2l-0.6,8.1l-3-0.2L104.7,13.5z"/>
		<path d="M121.4,22l-0.5,2.2l-8.2-1.8l2.2-10.3l8.1,1.7l-0.5,2.2l-5.2-1.1l-0.4,1.7l4.6,1l-0.5,2.2l-4.6-1l-0.4,1.9L121.4,22z"/>
		<path d="M129.1,24.1l-1.5-0.6l-1,2.6l-2.8-1.1l3.8-9.8l4.5,1.7c2.7,1,3.8,3,3,5.3c-0.6,1.4-1.7,2.2-3.1,2.4l0.9,3.9l-3-1.1
			L129.1,24.1z M131,19.1l-1.5-0.6l-1.1,2.9l1.5,0.6c1.1,0.4,1.9,0.1,2.3-0.8C132.6,20.2,132.2,19.5,131,19.1z"/>
		<path d="M147.4,34.9l-3.7-2.5l-1.8,1.2l-2.5-1.7l9.8-6l2.4,1.7l-2.1,11.3l-2.6-1.8L147.4,34.9z M148,32.6l0.8-3.5l-3,2L148,32.6z"
			/>
		<path d="M159.9,41l1.9,1.8l-3,3.1c-1.5-0.2-3-1-4.1-2.1c-2.4-2.3-2.6-5.6-0.4-8c2.2-2.3,5.6-2.2,8,0.1c1.4,1.4,2.1,3,2,4.6
			l-2.6-0.1c0-1.1-0.3-1.9-1-2.6c-1.3-1.2-3-1.2-4.2,0.1c-1.2,1.3-1.2,3,0.1,4.2c0.4,0.4,0.9,0.7,1.4,0.9L159.9,41z"/>
		<path d="M167,54.6l-1.8,1.4l-5.1-6.7l8.4-6.4l5,6.5l-1.8,1.4l-3.2-4.2l-1.4,1.1l2.8,3.7l-1.8,1.3l-2.8-3.7l-1.5,1.2L167,54.6z"/>
		<path d="M180.8,62.3l-9.2,5l-1.2-2.2l2.7-6.7l-4.9,2.7l-1.4-2.6l9.2-5l1.2,2.2l-2.7,6.7l4.9-2.7L180.8,62.3z"/>
		<path d="M177.7,68.2c3-1,5.9,0.6,7,3.7c0.6,1.8,0.5,3.5-0.4,4.9l-2.2-1.2c0.5-0.9,0.7-1.8,0.4-2.7c-0.6-1.6-2.1-2.4-3.8-1.8
			c-1.7,0.6-2.4,2.1-1.9,3.7c0.3,0.9,1,1.6,2,1.9l-1,2.3c-1.5-0.6-2.7-1.8-3.3-3.6C173.3,72.3,174.6,69.2,177.7,68.2z"/>
		<path d="M181.3,87.1l-3.7,0.7l-0.5-2.9l3.8-0.7l5.9-5.1l0.5,3.1l-3.7,3.2l4.5,1.7l0.5,2.8L181.3,87.1z"/>
		<path d="M181.7,110.1l-1-1.2l-2.6-0.3l0.4-2.9l10.4,1.3l-0.4,2.9l-4.3-0.6l3.8,4.6l-0.4,3.2l-4.1-4.8l-6.4,3.7l0.4-3.4
			L181.7,110.1z"/>
		<path d="M183.8,130.6l-10.1-3l0.9-2.8l3.9,1.2l1.2-3.9l-3.9-1.2l0.9-2.8l10.1,3l-0.9,2.8l-3.8-1.1l-1.2,3.9l3.8,1.1L183.8,130.6z"
			/>
		<path d="M171.1,137.9l2-4l-1.4-1.6l1.4-2.7l7.3,8.8l-1.3,2.6l-11.5-0.5l1.4-2.8L171.1,137.9z M173.4,138.1l3.6,0.3l-2.4-2.7
			L173.4,138.1z"/>
		<path d="M171.9,148.4l1.9-2.6l1.9,1.4l-5.4,7.7l-1.9-1.4l1.8-2.6l-6.7-4.7l1.7-2.4L171.9,148.4z"/>
		<path d="M156,158.4l-1.7-1.6l5.8-6.2l7.7,7.2l-5.6,6l-1.7-1.6l3.6-3.9l-1.3-1.2l-3.2,3.4l-1.6-1.5l3.2-3.4l-1.4-1.3L156,158.4z"/>
		<path d="M150.3,163.9l1.3-1l-1.7-2.2l2.3-1.8l6.5,8.2l-3.8,3c-2.2,1.8-4.6,1.7-6.1-0.2c-1-1.2-1.1-2.6-0.4-3.9l-3.8-1.2l2.5-2
			L150.3,163.9z M153.6,168.1l1.3-1l-1.9-2.4l-1.3,1c-1,0.8-1.1,1.6-0.5,2.3C151.8,168.8,152.6,168.9,153.6,168.1z"/>
		<path d="M131.6,174.1l4-1.9l-0.1-2.2l2.8-1.3l0.2,11.5l-2.7,1.2l-8.6-7.6l2.8-1.3L131.6,174.1z M133.3,175.8l2.6,2.5l-0.2-3.6
			L133.3,175.8z"/>
		<path d="M119.9,181.6l-2.5,0.7l-1.2-4.2c0.9-1.2,2.4-2.1,3.9-2.4c3.2-0.9,6.2,0.7,7,3.7s-0.9,5.9-4.2,6.8
			c-1.9,0.5-3.6,0.3-4.9-0.6l1.4-2.1c0.9,0.6,1.8,0.7,2.8,0.5c1.7-0.5,2.6-1.9,2.1-3.7c-0.5-1.7-1.9-2.6-3.7-2.1
			c-0.5,0.1-1,0.4-1.5,0.8L119.9,181.6z"/>
		<path d="M104.6,180.8l-0.2-2.3l8.4-0.9l1.2,10.4l-8.2,0.9l-0.2-2.3l5.3-0.6l-0.2-1.8l-4.6,0.5l-0.2-2.2l4.6-0.5l-0.2-1.9
			L104.6,180.8z"/>
		<path d="M90.9,188.7l0.5-10.5l2.4,0.1l4.4,5.8l0.2-5.6l2.9,0.1l-0.5,10.5l-2.4-0.1l-4.4-5.8l-0.2,5.6L90.9,188.7z"/>
		<path d="M87.5,183c-0.7,3.1-3.5,4.8-6.8,4.1c-1.9-0.4-3.3-1.4-4-2.9l2.2-1.3c0.5,0.9,1.2,1.5,2.2,1.7c1.7,0.4,3.1-0.6,3.5-2.3
			s-0.6-3.2-2.2-3.5c-1-0.2-1.9,0.1-2.7,0.7l-1.5-2.1c1.3-1,2.9-1.4,4.8-1C86.2,177.1,88.1,179.9,87.5,183z"/>
		<path d="M69.4,176.4l1.3-3.5l2.8,1.1l-1.3,3.6l1.4,7.7l-2.9-1.1l-0.8-4.8l-3.8,3l-2.7-1L69.4,176.4z"/>
		<path d="M49.5,165l1.6-0.2l1.6-2.1l2.3,1.8l-6.5,8.2l-2.3-1.8l2.7-3.4l-5.9,0.9l-2.6-2l6.2-1l0.1-7.4l2.7,2.1V165z"/>
		<path d="M30.8,156.2l7.8-7.1l2,2.2l-3,2.8l2.7,3l3-2.8l2,2.2l-7.8,7.1l-2-2.2l2.9-2.6l-2.7-3l-2.9,2.6L30.8,156.2z"/>
		<path d="M31,141.6l2.4,3.7l2.2-0.4l1.6,2.6l-11.4,1.8l-1.6-2.5l6.3-9.6l1.7,2.6L31,141.6z M29.6,143.5l-2.1,2.9l3.6-0.7
			L29.6,143.5z"/>
		<path d="M21.6,136.9l1.3,2.9l-2.1,1l-3.9-8.6l2.1-1l1.3,2.9l7.4-3.4l1.2,2.7L21.6,136.9z"/>
		<path d="M21.1,118.2l2.2-0.6l2.3,8.1l-10.1,2.9l-2.3-7.9l2.2-0.6l1.5,5.1l1.7-0.5l-1.3-4.5l2.1-0.6l1.3,4.5l1.9-0.5L21.1,118.2z"
			/>
		<path d="M19.4,110.4l0.2,1.6l2.8-0.4l0.4,2.9l-10.4,1.3l-0.6-4.8c-0.4-2.8,0.9-4.8,3.3-5.1c1.5-0.2,2.8,0.4,3.6,1.6l3-2.7l0.4,3.2
			L19.4,110.4z M14,111.1l0.2,1.6l3-0.4l-0.2-1.6c-0.2-1.2-0.8-1.8-1.8-1.6C14.4,109.1,13.9,109.8,14,111.1z"/>
		<path d="M20.2,89.1l-0.5,4.4l1.9,1l-0.3,3l-9.9-5.7l0.3-2.9l10.9-3.5l-0.3,3.1L20.2,89.1z M17.9,89.8l-3.5,1l3.2,1.7L17.9,89.8z"
			/>
		<path d="M19.7,75.3l0.7-2.5l4.2,1.2c0.5,1.4,0.5,3.1,0.1,4.6c-0.9,3.2-3.7,5-6.8,4.1s-4.6-3.8-3.7-7.1c0.5-1.9,1.6-3.2,3.1-3.9
			l1.1,2.3c-1,0.5-1.5,1.2-1.8,2.1c-0.5,1.7,0.3,3.2,2.1,3.7c1.7,0.5,3.2-0.3,3.7-2.1c0.1-0.5,0.2-1.1,0.1-1.6L19.7,75.3z"/>
		<path d="M28.2,62.5l2.1,1l-3.5,7.7l-9.6-4.3l3.4-7.5l2.1,1l-2.2,4.8l1.6,0.7l1.9-4.2l2,0.9l-1.9,4.2l1.8,0.8L28.2,62.5z"/>
		<path d="M28.5,46.7l8.8,5.8l-1.3,2l-7.2,0.8l4.7,3.1l-1.6,2.4L23,55.1l1.4-2l7.2-0.8l-4.7-3.1L28.5,46.7z"/>
		<path d="M35.2,46.7c-2.3-2.2-2.3-5.5-0.1-8c1.3-1.4,2.9-2.1,4.5-2l0,2.5c-1-0.1-1.9,0.2-2.6,1c-1.2,1.3-1.1,3,0.2,4.2
			s3,1.2,4.2-0.1c0.7-0.7,0.9-1.6,0.8-2.7l2.5-0.2c0.2,1.6-0.3,3.2-1.6,4.7C40.9,48.6,37.5,48.9,35.2,46.7z"/>
		<path d="M50.1,34.6l2.3,3l-2.3,1.8l-2.4-3l-7.3-2.8l2.5-2l4.5,1.7l-0.6-4.8l2.3-1.8L50.1,34.6z"/>
	</g>
</g>
</svg>
